<svg xmlns="http://www.w3.org/2000/svg" width="60" height="60" viewBox="0 0 60 60">
    <g fill="none" fill-rule="evenodd">
        <g fill="#FFF" fill-rule="nonzero">
            <g>
                <path d="M60 30C60 13.42 46.582 0 30 0 13.42 0 0 13.418 0 30c0 16.434 13.305 30 30 30 16.626 0 30-13.49 30-30zM30 3.516c14.604 0 26.484 11.88 26.484 26.484 0 5.342-1.589 10.477-4.535 14.826-11.832-12.728-32.044-12.75-43.898 0C5.105 40.476 3.516 35.342 3.516 30 3.516 15.396 15.396 3.516 30 3.516zm-19.756 44.12c10.52-11.8 28.995-11.797 39.512 0-10.556 11.81-28.952 11.814-39.512 0z" transform="translate(-834 -2678) translate(834 2678)"/>
                <path d="M30 31.758c5.815 0 10.547-4.732 10.547-10.547v-3.516c0-5.815-4.732-10.547-10.547-10.547S19.453 11.88 19.453 17.695v3.516c0 5.815 4.732 10.547 10.547 10.547zm-7.031-14.063c0-3.877 3.154-7.03 7.031-7.03s7.031 3.153 7.031 7.03v3.516c0 3.877-3.154 7.031-7.031 7.031s-7.031-3.154-7.031-7.031v-3.516z" transform="translate(-834 -2678) translate(834 2678)"/>
            </g>
        </g>
    </g>
</svg>
