<svg xmlns="http://www.w3.org/2000/svg" width="61" height="60" viewBox="0 0 61 60">
    <g fill="none" fill-rule="evenodd">
        <g fill="#FFF" fill-rule="nonzero">
            <g>
                <path d="M58.358 0H41.366c-.608 0-1.173.315-1.494.833l-9.755 15.764L20.363.833C20.043.315 19.476 0 18.868 0H1.877C.5 0-.343 1.518.385 2.688l13.84 22.223c-3.268 3.724-5.252 8.602-5.252 13.936C8.973 50.51 18.458 60 30.117 60c11.66 0 21.145-9.49 21.145-21.153 0-5.334-1.985-10.212-5.252-13.936L59.85 2.688C60.576 1.52 59.735 0 58.357 0zm-40.47 3.517l8.932 14.434c-3.752.59-7.18 2.172-10.006 4.467L5.044 3.517h12.845zm12.23 52.966c-9.721 0-17.63-7.912-17.63-17.636 0-9.725 7.909-17.637 17.63-17.637 9.72 0 17.628 7.912 17.628 17.637 0 9.724-7.908 17.636-17.629 17.636zM43.42 22.418c-2.827-2.295-6.254-3.877-10.007-4.467l8.931-14.434h12.846l-11.77 18.901z" transform="translate(-1301 -2677) translate(1301 2677)"/>
                <path d="M41.105 34.769l-6.138-1.539-3.36-5.365c-.688-1.098-2.291-1.099-2.98 0l-3.36 5.365-6.138 1.539c-1.257.315-1.752 1.84-.92 2.834l4.062 4.855-.434 6.316c-.089 1.293 1.208 2.236 2.41 1.752l5.87-2.365 5.87 2.365c1.202.484 2.5-.459 2.41-1.752l-.433-6.316 4.061-4.855c.833-.994.337-2.52-.92-2.834zm-6.291 5.975c-.291.348-.437.796-.406 1.249l.29 4.222-3.924-1.58c-.422-.17-.892-.17-1.313 0l-3.925 1.58.29-4.222c.032-.454-.114-.9-.405-1.25l-2.716-3.245 4.104-1.029c.44-.11.82-.387 1.062-.772l2.246-3.586 2.246 3.586c.242.385.622.662 1.063.772l4.103 1.03-2.715 3.245z" transform="translate(-1301 -2677) translate(1301 2677)"/>
            </g>
        </g>
    </g>
</svg>
