<svg xmlns="http://www.w3.org/2000/svg" width="53" height="60" viewBox="0 0 53 60">
    <g fill="none" fill-rule="evenodd">
        <g fill="#FFF">
            <g>
                <path fill-rule="nonzero" d="M52.969 6.449C52.969 2.893 50.078 0 46.524 0H6.444C2.892 0 0 2.893 0 6.449v40.104c0 3.556 2.891 6.449 6.445 6.449H14.2c.73.845 1.513 1.628 2.349 2.345C20.53 58.763 25.158 60 26.482 60c.694 0 7.07-.97 12.28-6.998h7.785c3.564 0 6.448-2.887 6.446-6.453l-.024-40.1zM6.445 3.518h40.079c1.615 0 2.93 1.315 2.93 2.932l.004 7.738H3.516V6.45c0-1.616 1.314-2.931 2.929-2.931zm20.038 52.946C19.03 55.197 11.202 47.7 10.692 31.642c9.158-.41 13.926-3.936 15.997-6.074 2.472 1.972 7.949 5.557 15.583 6.056-.507 16.124-8.405 23.585-15.79 24.84zm20.064-6.98h-5.265c3.407-5.768 4.532-12.805 4.532-19.561 0-.972-.787-1.76-1.758-1.76-6.548 0-13.055-3.047-16.322-6.345-.856-.87-2.211-.635-2.761.33-1.68 2.606-7.032 6.016-16.066 6.016-.97 0-1.758.787-1.758 1.759 0 6.756 1.125 13.792 4.532 19.56H6.445c-1.615 0-2.93-1.314-2.93-2.93V17.706H49.46l.017 28.845c0 1.62-1.31 2.933-2.93 2.933z" transform="translate(-1078 -2678) translate(1078 2678)"/>
                <path d="M45.82 8.912c0-.972-.787-1.759-1.758-1.759-.97 0-1.757.787-1.757 1.759 0 .971.787 1.758 1.758 1.758.97 0 1.757-.787 1.757-1.758zM38.79 8.912c0-.972-.788-1.759-1.759-1.759-.97 0-1.758.787-1.758 1.759 0 .971.787 1.758 1.758 1.758s1.758-.787 1.758-1.758zM31.758 8.912c0-.972-.787-1.759-1.758-1.759-.97 0-1.758.787-1.758 1.759 0 .971.787 1.758 1.758 1.758.97 0 1.758-.787 1.758-1.758zM31.276 36.259l-6.682 6.686-2.907-2.909c-.686-.687-1.8-.687-2.486 0-.686.687-.686 1.8 0 2.487l4.15 4.153c.686.687 1.799.687 2.486 0l7.924-7.93c.687-.687.687-1.8 0-2.487-.686-.687-1.799-.687-2.485 0z" transform="translate(-1078 -2678) translate(1078 2678)"/>
            </g>
        </g>
    </g>
</svg>
