<svg xmlns="http://www.w3.org/2000/svg" width="43" height="60" viewBox="0 0 43 60">
    <g fill="none" fill-rule="evenodd">
        <g fill="#FFF">
            <g>
                <path d="M6.378 15.912c.957-.165 1.598-1.074 1.433-2.03C6.875 8.456 11.06 3.515 16.53 3.515c5.454 0 9.645 4.917 8.722 10.344-.162.957.481 1.865 1.438 2.028.958.163 1.865-.482 2.028-1.439C30.002 6.897 24.173 0 16.53 0 8.895 0 3.038 6.896 4.347 14.48c.165.959 1.078 1.597 2.031 1.432z" transform="translate(-604 -2677) translate(604 2677)"/>
                <path fill-rule="nonzero" d="M35.234 28.2c-1.317-2.585-4.455-3.618-7.031-2.343-1.198-2.35-3.936-3.461-6.426-2.597V12.495c0-2.87-2.306-5.267-5.14-5.345-2.97-.084-5.432 2.295-5.432 5.272v27.08L9.14 37.339c-1.982-2.075-5.301-2.22-7.4-.324-2.213 2-2.323 5.408-.285 7.55l11.868 12.658C14.978 58.987 17.315 60 19.735 60H34.05c4.846 0 8.789-3.943 8.789-8.79V32.93c0-3.895-4.108-6.46-7.604-4.73zm4.088 23.01c0 2.909-2.365 5.274-5.273 5.274H19.735c-1.452 0-2.854-.607-3.847-1.666L4.004 42.143c-.68-.713-.648-1.85.094-2.52.699-.632 1.82-.567 2.499.144l5.094 5.335c1.092 1.144 3.029.368 3.029-1.214V12.422c0-.988.82-1.785 1.82-1.757.95.026 1.722.846 1.722 1.83 0 19.342-.033 10.574-.033 21.02 0 .974.792 1.768 1.774 1.758.98.01 1.774-.783 1.774-1.757v-5.608c.157-.81.87-1.424 1.725-1.424.97 0 1.758.79 1.758 1.758v5.274c0 .97.787 1.757 1.758 1.757.97 0 1.757-.786 1.757-1.757v-2.93c0-.97.79-1.758 1.758-1.758.97 0 1.758.789 1.758 1.758v2.93c0 .97.787 1.757 1.758 1.757.97 0 1.758-.786 1.758-1.757v-.586c0-.97.788-1.758 1.758-1.758.969 0 1.757.789 1.757 1.758v18.28z" transform="translate(-604 -2677) translate(604 2677)"/>
            </g>
        </g>
    </g>
</svg>
