<svg xmlns="http://www.w3.org/2000/svg" width="20" height="20" viewBox="0 0 20 20">
    <g fill="none" fill-rule="evenodd">
        <g fill="#F5F6F6">
            <g>
                <path d="M20 10c0-5.523-4.477-10-10-10S0 4.477 0 10s4.477 10 10 10c.059 0 .117 0 .176-.004v-7.781H8.027V9.71h2.149V7.867c0-2.137 1.304-3.3 3.21-3.3.915 0 1.7.066 1.927.097v2.234H14c-1.035 0-1.238.493-1.238 1.215v1.594h2.48l-.324 2.504h-2.156v7.402C16.942 18.414 20 14.566 20 10z" transform="translate(-1020 -3597) translate(1020 3597)"/>
            </g>
        </g>
    </g>
</svg>
