<svg xmlns="http://www.w3.org/2000/svg" width="20" height="20" viewBox="0 0 20 20">
    <g fill="none" fill-rule="evenodd">
        <g fill="#F5F6F6">
            <g>
                <path fill-rule="nonzero" d="M14.754 6.403c-.097-.265-.253-.505-.456-.701-.196-.203-.436-.359-.701-.456-.215-.084-.538-.183-1.132-.21C11.82 5.006 11.629 5 10 5s-1.821.006-2.464.035c-.595.028-.918.127-1.133.21-.265.098-.505.254-.701.457-.203.196-.359.436-.456.701-.084.215-.183.538-.21 1.133C5.006 8.179 5 8.37 5 10s.006 1.821.036 2.465c.027.594.126.917.21 1.132.097.265.253.505.456.701.196.203.436.359.701.456.215.084.538.183 1.133.21.643.03.835.036 2.464.036s1.822-.006 2.464-.035c.595-.028.918-.127 1.133-.21.532-.206.952-.626 1.157-1.158.084-.215.183-.538.21-1.132.03-.644.036-.836.036-2.465s-.006-1.821-.035-2.464c-.028-.595-.127-.918-.21-1.133zM10 13c-1.657 0-3-1.343-3-3s1.343-3 3-3 3 1.343 3 3-1.343 3-3 3zm3.5-6c-.276 0-.5-.224-.5-.5s.224-.5.5-.5.5.224.5.5-.224.5-.5.5z" transform="translate(-1020 -3507) translate(1020 3507)"/>
                <path d="M12 10c0 1.105-.895 2-2 2s-2-.895-2-2 .895-2 2-2 2 .895 2 2z" transform="translate(-1020 -3507) translate(1020 3507)"/>
                <path fill-rule="nonzero" d="M10 0C4.478 0 0 4.478 0 10s4.478 10 10 10 10-4.478 10-10S15.522 0 10 0zm5.708 12.367c-.028.612-.125 1.029-.267 1.394-.299.772-.908 1.381-1.68 1.68-.365.142-.782.239-1.393.267-.613.027-.808.034-2.368.034-1.56 0-1.755-.007-2.367-.034-.612-.028-1.029-.125-1.394-.267-.383-.145-.73-.37-1.017-.663-.292-.286-.518-.634-.663-1.017-.141-.365-.239-.782-.266-1.393-.029-.613-.035-.809-.035-2.368 0-1.56.006-1.755.034-2.367.028-.612.125-1.029.267-1.394.144-.383.37-.73.663-1.017.286-.292.634-.518 1.017-.663.365-.142.782-.239 1.394-.267.612-.027.808-.034 2.367-.034 1.56 0 1.755.007 2.367.035.612.027 1.029.124 1.394.266.383.144.73.37 1.017.663.292.287.519.634.663 1.017.142.365.239.782.267 1.394.028.612.034.808.034 2.367 0 1.56-.006 1.755-.034 2.367z" transform="translate(-1020 -3507) translate(1020 3507)"/>
            </g>
        </g>
    </g>
</svg>
