<svg xmlns="http://www.w3.org/2000/svg" width="149" height="20" viewBox="0 0 149 20">
    <g fill="none" fill-rule="evenodd">
        <g>
            <g>
                <g>
                    <path fill="#FFF" d="M140.257 1.939h-4.519V5.26h4.519c2.715 0 4.686 1.984 4.686 4.717 0 2.734-1.971 4.718-4.686 4.718h-4.527l.006-9.427h-3.733l-.005 12.749h8.259c4.97 0 8.578-3.381 8.578-8.04 0-4.658-3.608-8.04-8.578-8.04M126.159 12.264L116.36 2 113 2 113 18 116.842 18 116.842 7.736 126.641 18 130 18 130 2 126.159 2zM106.898 10.581c0 2.784-1.863 4.804-4.43 4.804-2.567 0-4.43-2.02-4.43-4.804V1.786h-3.931v8.795c0 4.827 3.594 8.466 8.361 8.466 4.766 0 8.36-3.64 8.36-8.466V1.786h-3.93v8.795zM75.195 18.72L79.126 18.72 79.126 12.003 88.551 12.003 88.551 8.504 79.126 8.504 79.126 5.285 91.917 5.285 91.917 1.787 75.195 1.787zM58.454 5.285h8.47c.85 0 1.4.535 1.4 1.364v.491c0 .829-.55 1.364-1.4 1.364h-8.47V5.285zm9.647 6.613c2.54-.452 4.154-2.337 4.154-4.922 0-3.104-2.142-5.19-5.331-5.19h-12.4V18.72h3.93v-6.717h5.283l4.275 6.717h4.468l-4.066-6.375c-.086-.146-.2-.303-.313-.447z" transform="translate(-200 -43) translate(200 43)"/>
                    <path fill="#EA0A0A" d="M43.73 0.037L43.73 0.031 43.729 0.034 43.727 0.031 43.727 0.037 35.04 16.119 37.873 18.841 43.587 13.551 40.207 14.596 43.729 7.915 47.251 14.596 43.87 13.551 49.584 18.841 52.418 16.119z" transform="translate(-200 -43) translate(200 43)"/>
                    <path fill="#FFF" d="M35.655 1.787L18.261 1.787 18.261 5.285 24.992 5.285 24.992 18.72 28.923 18.72 28.923 5.285 35.655 5.285zM8.522 8.34c-3.746 0-4.262-.703-4.262-1.462 0-1.587 2.226-1.92 4.093-1.92 2.218 0 3.772.666 4.046 1.689h3.967c-.208-3.118-3.375-5.188-8.013-5.188C3.18 1.459.33 3.383.33 6.878c0 3.477 2.36 4.96 7.89 4.96 4.046 0 4.564.852 4.564 1.594 0 1.842-2.776 2.117-4.43 2.117-2.473 0-4.188-.707-4.405-1.784H0c.156 3.17 3.472 5.283 8.353 5.283 5.392 0 8.36-1.995 8.36-5.616 0-3.522-2.526-5.092-8.191-5.092" transform="translate(-200 -43) translate(200 43)"/>
                </g>
            </g>
        </g>
    </g>
</svg>
