<svg xmlns="http://www.w3.org/2000/svg" width="29" height="40" viewBox="0 0 29 40">
    <g fill="none" fill-rule="evenodd">
        <g fill="#FFF" fill-rule="nonzero">
            <g>
                <path d="M14.304 0C5.36 0 .022 5.873.022 15.71c0 10.731 12.74 23.34 13.282 23.87.555.545 1.444.545 2 0 .542-.531 13.282-13.139 13.282-23.87C28.586 5.873 23.247 0 14.304 0zm0 36.506C11.35 33.355 2.879 23.63 2.879 15.71c0-8.284 4.057-12.854 11.425-12.854s11.425 4.57 11.425 12.854c0 7.91-8.473 17.644-11.425 20.796z" transform="translate(-541 -1251) translate(541 1251)"/>
                <path d="M14.304 5.713c-3.944 0-7.14 3.197-7.14 7.14 0 3.944 3.196 7.141 7.14 7.141 3.944 0 7.14-3.197 7.14-7.14-.004-3.942-3.198-7.137-7.14-7.141zm0 11.425c-2.366 0-4.285-1.918-4.285-4.284 0-2.367 1.919-4.285 4.285-4.285s4.284 1.918 4.284 4.285c0 2.366-1.918 4.284-4.284 4.284z" transform="translate(-541 -1251) translate(541 1251)"/>
            </g>
        </g>
    </g>
</svg>
