<svg xmlns="http://www.w3.org/2000/svg" width="20" height="20" viewBox="0 0 20 20">
    <g fill="none" fill-rule="evenodd">
        <g fill="#7B7E83" fill-rule="nonzero">
            <g>
                <path d="M10 0C4.478 0 0 4.477 0 10s4.477 10 10 10 10-4.477 10-10S15.523 0 10 0zm0 2.99c1.827 0 3.308 1.481 3.308 3.308 0 1.827-1.48 3.308-3.308 3.308-1.826 0-3.307-1.481-3.307-3.308C6.693 4.47 8.173 2.99 10 2.99zm-.002 14.395c-1.823 0-3.492-.663-4.78-1.762-.313-.267-.494-.66-.494-1.071 0-1.853 1.5-3.335 3.352-3.335h3.849c1.853 0 3.346 1.482 3.346 3.335 0 .412-.18.803-.494 1.07-1.287 1.1-2.956 1.763-4.78 1.763z" transform="translate(-1645 -43) translate(1645 43)"/>
            </g>
        </g>
    </g>
</svg>
