<?xml version="1.0" encoding="utf-8"?>
<!-- Generator: Adobe Illustrator 24.1.2, SVG Export Plug-In . SVG Version: 6.00 Build 0)  -->
<svg version="1.1" id="Layer_1" xmlns="http://www.w3.org/2000/svg" xmlns:xlink="http://www.w3.org/1999/xlink" x="0px" y="0px"
	 viewBox="0 0 640 360" style="enable-background:new 0 0 640 360;" xml:space="preserve">
<style type="text/css">
	.st0{enable-background:new    ;}
	.st1{fill:#FFFFFF;}
	.st2{fill:#ED2024;}
	.st3{fill:none;stroke:#FFFFFF;stroke-width:2;stroke-miterlimit:10;}
</style>
<image style="overflow:visible;enable-background:new    ;" width="640" height="360" xlink:href="../Untitled-1.png" >
</image>
<g class="st0">
	<path class="st1" d="M177.5,156.3v16.1h-3.7v-5.8c-1.4,0.5-2.7,0.8-3.9,0.8c-2.2,0-3.8-0.5-5-1.6c-1.1-1-1.7-2.5-1.7-4.5v-5h3.7
		v4.6c0,1.1,0.3,1.9,0.9,2.5c0.6,0.6,1.4,0.8,2.6,0.8c1.2,0,2.4-0.2,3.4-0.7v-7.2H177.5z"/>
	<path class="st1" d="M191.6,163h-4.2v9.4h-3.6V163h-4.2v-2.9h11.9V163z"/>
	<path class="st1" d="M195.3,171.8c-1-0.5-1.8-1.3-2.4-2.3c-0.6-1-0.9-2.1-0.9-3.3s0.3-2.3,0.9-3.3c0.6-1,1.4-1.7,2.4-2.3
		c1-0.5,2.2-0.8,3.5-0.8s2.5,0.3,3.5,0.8c1,0.5,1.8,1.3,2.4,2.3c0.6,1,0.9,2.1,0.9,3.3s-0.3,2.3-0.9,3.3c-0.6,1-1.4,1.7-2.4,2.3
		c-1,0.5-2.2,0.8-3.5,0.8S196.3,172.4,195.3,171.8z M201.1,168.7c0.6-0.6,0.9-1.5,0.9-2.5c0-1-0.3-1.9-0.9-2.5
		c-0.6-0.6-1.3-0.9-2.3-0.9s-1.7,0.3-2.3,0.9c-0.6,0.6-0.9,1.5-0.9,2.5c0,1,0.3,1.9,0.9,2.5c0.6,0.6,1.4,0.9,2.3,0.9
		S200.5,169.4,201.1,168.7z"/>
	<path class="st1" d="M218.3,161.6c0.9,0.5,1.6,1.2,2.1,2s0.7,1.9,0.7,3c0,1.2-0.3,2.2-0.9,3.1c-0.6,0.9-1.4,1.6-2.4,2.1
		c-1,0.5-2.2,0.7-3.5,0.7c-2.2,0-3.9-0.7-5.1-2.1c-1.2-1.4-1.9-3.4-1.9-6.1c0-2.5,0.5-4.5,1.6-5.9s2.7-2.4,5-2.9l5.9-1.2l0.5,3.1
		l-5.2,1c-1.4,0.3-2.5,0.7-3.1,1.4c-0.7,0.6-1.1,1.6-1.2,2.7c0.5-0.6,1.2-1,1.9-1.3c0.8-0.3,1.6-0.5,2.5-0.5
		C216.4,160.9,217.4,161.2,218.3,161.6z M216.6,169c0.6-0.6,0.8-1.4,0.8-2.3c0-0.9-0.3-1.7-0.8-2.2c-0.6-0.6-1.3-0.8-2.2-0.8
		c-0.9,0-1.7,0.3-2.3,0.8s-0.9,1.3-0.9,2.2s0.3,1.7,0.9,2.3c0.6,0.6,1.3,0.9,2.2,0.9C215.3,169.9,216,169.6,216.6,169z"/>
	<path class="st1" d="M233.7,165.1c0.8,0.7,1.2,1.7,1.2,3c0,1.4-0.5,2.4-1.4,3.2c-0.9,0.8-2.3,1.1-4,1.1l-6,0v-12.4h3.6v4h2.9
		C231.6,164,232.9,164.4,233.7,165.1z M230.8,169.5c0.4-0.3,0.6-0.8,0.6-1.4c0-0.6-0.2-1-0.5-1.3c-0.4-0.3-0.9-0.4-1.6-0.4l-2.1,0
		v3.6h2.1C229.9,169.9,230.5,169.8,230.8,169.5z M236.3,160.1h3.6v12.4h-3.6V160.1z"/>
	<path class="st1" d="M262.1,160.1v12.4h-3.6V163h-5.2v9.4h-3.6v-12.4H262.1z"/>
	<path class="st1" d="M267.8,171.8c-1-0.5-1.8-1.3-2.4-2.3c-0.6-1-0.9-2.1-0.9-3.3s0.3-2.3,0.9-3.3c0.6-1,1.4-1.7,2.4-2.3
		c1-0.5,2.2-0.8,3.5-0.8s2.5,0.3,3.5,0.8c1,0.5,1.8,1.3,2.4,2.3c0.6,1,0.9,2.1,0.9,3.3s-0.3,2.3-0.9,3.3c-0.6,1-1.4,1.7-2.4,2.3
		c-1,0.5-2.2,0.8-3.5,0.8S268.9,172.4,267.8,171.8z M273.6,168.7c0.6-0.6,0.9-1.5,0.9-2.5c0-1-0.3-1.9-0.9-2.5
		c-0.6-0.6-1.3-0.9-2.3-0.9s-1.7,0.3-2.3,0.9c-0.6,0.6-0.9,1.5-0.9,2.5c0,1,0.3,1.9,0.9,2.5c0.6,0.6,1.4,0.9,2.3,0.9
		S273,169.4,273.6,168.7z"/>
	<path class="st1" d="M282.9,171.8c-1.1-0.5-1.9-1.3-2.5-2.3c-0.6-1-0.9-2.1-0.9-3.3s0.3-2.3,0.9-3.3c0.6-1,1.4-1.7,2.5-2.3
		c1-0.5,2.2-0.8,3.6-0.8c1.3,0,2.4,0.3,3.4,0.8s1.7,1.3,2.1,2.3l-2.8,1.5c-0.6-1.1-1.6-1.7-2.8-1.7c-0.9,0-1.7,0.3-2.3,0.9
		c-0.6,0.6-0.9,1.4-0.9,2.5c0,1.1,0.3,1.9,0.9,2.5c0.6,0.6,1.4,0.9,2.3,0.9c1.2,0,2.2-0.6,2.8-1.7l2.8,1.5c-0.4,1-1.2,1.7-2.1,2.3
		c-1,0.6-2.1,0.8-3.4,0.8C285.2,172.6,284,172.4,282.9,171.8z"/>
	<path class="st1" d="M306.3,172.4V165l-3.7,6.2h-1.5l-3.6-6.2v7.4h-3.2v-12.4h3.7l4,7.2l4.2-7.2h3.4l0,12.4H306.3z"/>
	<path class="st1" d="M315.2,171.8c-1-0.5-1.8-1.3-2.4-2.3c-0.6-1-0.9-2.1-0.9-3.3s0.3-2.3,0.9-3.3c0.6-1,1.4-1.7,2.4-2.3
		c1-0.5,2.2-0.8,3.5-0.8c1.3,0,2.5,0.3,3.5,0.8c1,0.5,1.8,1.3,2.4,2.3c0.6,1,0.9,2.1,0.9,3.3s-0.3,2.3-0.9,3.3
		c-0.6,1-1.4,1.7-2.4,2.3c-1,0.5-2.2,0.8-3.5,0.8C317.4,172.6,316.3,172.4,315.2,171.8z M321,168.7c0.6-0.6,0.9-1.5,0.9-2.5
		c0-1-0.3-1.9-0.9-2.5c-0.6-0.6-1.3-0.9-2.3-0.9s-1.7,0.3-2.3,0.9c-0.6,0.6-0.9,1.5-0.9,2.5c0,1,0.3,1.9,0.9,2.5
		c0.6,0.6,1.4,0.9,2.3,0.9S320.4,169.4,321,168.7z"/>
	<path class="st1" d="M337.9,163h-4.2v9.4h-3.6V163H326v-2.9h11.9V163z"/>
	<path class="st1" d="M350.3,160.7c0.9,0.5,1.7,1.3,2.2,2.2s0.8,2.1,0.8,3.3c0,1.3-0.3,2.4-0.8,3.3c-0.5,1-1.3,1.7-2.2,2.2
		c-0.9,0.5-2,0.8-3.1,0.8c-1.6,0-2.8-0.5-3.7-1.5v5.8h-3.6v-16.8h3.4v1.4c0.9-1.1,2.2-1.6,3.9-1.6
		C348.3,159.9,349.3,160.1,350.3,160.7z M348.8,168.7c0.6-0.6,0.9-1.5,0.9-2.5c0-1-0.3-1.9-0.9-2.5c-0.6-0.6-1.3-0.9-2.3-0.9
		s-1.7,0.3-2.3,0.9c-0.6,0.6-0.9,1.5-0.9,2.5c0,1,0.3,1.9,0.9,2.5c0.6,0.6,1.3,0.9,2.3,0.9S348.2,169.4,348.8,168.7z"/>
	<path class="st1" d="M367.8,167.3h-9.4c0.2,0.8,0.6,1.4,1.2,1.8c0.6,0.4,1.4,0.7,2.3,0.7c0.6,0,1.2-0.1,1.7-0.3
		c0.5-0.2,1-0.5,1.4-0.9l1.9,2.1c-1.2,1.3-2.9,2-5.1,2c-1.4,0-2.6-0.3-3.7-0.8c-1.1-0.5-1.9-1.3-2.5-2.3c-0.6-1-0.9-2.1-0.9-3.3
		c0-1.2,0.3-2.3,0.9-3.3c0.6-1,1.4-1.7,2.4-2.3c1-0.5,2.1-0.8,3.4-0.8c1.2,0,2.3,0.3,3.3,0.8c1,0.5,1.8,1.3,2.3,2.2
		c0.6,1,0.8,2.1,0.8,3.4C367.8,166.3,367.8,166.7,367.8,167.3z M359.4,163.3c-0.6,0.5-0.9,1.1-1,1.9h6.1c-0.1-0.8-0.5-1.4-1-1.9
		s-1.2-0.7-2-0.7C360.6,162.6,359.9,162.8,359.4,163.3z"/>
	<path class="st1" d="M380.5,163h-4.2v9.4h-3.6V163h-4.2v-2.9h11.9V163z"/>
	<path class="st1" d="M392.9,165.1c0.9,0.7,1.3,1.7,1.3,3c0,1.4-0.5,2.4-1.4,3.2c-1,0.8-2.3,1.1-4,1.1l-6.2,0v-12.4h3.6v4h3.1
		C390.8,164,392,164.4,392.9,165.1z M389.9,169.5c0.4-0.3,0.6-0.8,0.6-1.4c0-0.6-0.2-1-0.5-1.3c-0.4-0.3-0.9-0.4-1.6-0.4l-2.3,0v3.6
		h2.3C389,169.9,389.6,169.8,389.9,169.5z"/>
	<path class="st1" d="M414.5,168.9c0,1.1-0.4,2-1.3,2.6c-0.8,0.6-2.1,0.9-3.8,0.9h-6.6v-12.4h6.3c1.5,0,2.8,0.3,3.6,0.8
		s1.3,1.3,1.3,2.4c0,0.6-0.2,1.2-0.5,1.6s-0.8,0.8-1.3,1.1C413.8,166.5,414.5,167.4,414.5,168.9z M406.2,165.1h2.7
		c1.3,0,1.9-0.4,1.9-1.3c0-0.9-0.6-1.3-1.9-1.3h-2.7V165.1z M411.2,168.6c0-0.5-0.2-0.8-0.5-1c-0.3-0.2-0.8-0.3-1.4-0.3h-3.1v2.7h3
		C410.5,170,411.2,169.6,411.2,168.6z"/>
	<path class="st1" d="M417.2,160.1h3.6v7.4l6-7.4h3.3v12.4h-3.6v-7.4l-6,7.4h-3.3V160.1z"/>
	<path class="st1" d="M447.4,169.5v5.6H444v-2.7h-8.7v2.7H432v-5.6h0.5c0.8,0,1.3-0.5,1.6-1.4s0.5-2.2,0.6-3.8l0.2-4.3h10.8v9.4
		H447.4z M437.6,167.7c-0.1,0.8-0.4,1.4-0.8,1.8h5.2V163h-4l-0.1,1.6C437.9,165.9,437.8,166.9,437.6,167.7z"/>
	<path class="st1" d="M461.6,167.3h-9.4c0.2,0.8,0.6,1.4,1.2,1.8c0.6,0.4,1.4,0.7,2.3,0.7c0.6,0,1.2-0.1,1.7-0.3
		c0.5-0.2,1-0.5,1.4-0.9l1.9,2.1c-1.2,1.3-2.9,2-5.1,2c-1.4,0-2.6-0.3-3.7-0.8c-1.1-0.5-1.9-1.3-2.5-2.3c-0.6-1-0.9-2.1-0.9-3.3
		c0-1.2,0.3-2.3,0.9-3.3c0.6-1,1.4-1.7,2.4-2.3c1-0.5,2.1-0.8,3.4-0.8c1.2,0,2.3,0.3,3.3,0.8c1,0.5,1.8,1.3,2.3,2.2s0.8,2.1,0.8,3.4
		C461.7,166.3,461.6,166.7,461.6,167.3z M453.2,163.3c-0.6,0.5-0.9,1.1-1,1.9h6.1c-0.1-0.8-0.5-1.4-1-1.9c-0.6-0.5-1.2-0.7-2-0.7
		C454.4,162.6,453.8,162.8,453.2,163.3z"/>
	<path class="st1" d="M466.7,171.8c-1-0.5-1.8-1.3-2.4-2.3c-0.6-1-0.9-2.1-0.9-3.3s0.3-2.3,0.9-3.3c0.6-1,1.4-1.7,2.4-2.3
		c1-0.5,2.2-0.8,3.5-0.8c1.3,0,2.5,0.3,3.5,0.8s1.8,1.3,2.4,2.3c0.6,1,0.9,2.1,0.9,3.3s-0.3,2.3-0.9,3.3c-0.6,1-1.4,1.7-2.4,2.3
		c-1,0.5-2.2,0.8-3.5,0.8C468.9,172.6,467.8,172.4,466.7,171.8z M472.5,168.7c0.6-0.6,0.9-1.5,0.9-2.5c0-1-0.3-1.9-0.9-2.5
		s-1.3-0.9-2.3-0.9s-1.7,0.3-2.3,0.9c-0.6,0.6-0.9,1.5-0.9,2.5c0,1,0.3,1.9,0.9,2.5c0.6,0.6,1.4,0.9,2.3,0.9
		S471.9,169.4,472.5,168.7z"/>
</g>
<g class="st0">
	<path class="st1" d="M248.2,191.1v12.4h-3.6V194h-5.2v9.4h-3.6v-12.4H248.2z"/>
	<path class="st1" d="M254,202.8c-1-0.5-1.8-1.3-2.4-2.3c-0.6-1-0.9-2.1-0.9-3.3s0.3-2.3,0.9-3.3c0.6-1,1.4-1.7,2.4-2.3
		c1-0.5,2.2-0.8,3.5-0.8s2.5,0.3,3.5,0.8c1,0.5,1.8,1.3,2.4,2.3c0.6,1,0.9,2.1,0.9,3.3s-0.3,2.3-0.9,3.3c-0.6,1-1.4,1.7-2.4,2.3
		c-1,0.5-2.2,0.8-3.5,0.8S255,203.4,254,202.8z M259.7,199.7c0.6-0.6,0.9-1.5,0.9-2.5c0-1-0.3-1.9-0.9-2.5c-0.6-0.6-1.3-0.9-2.3-0.9
		s-1.7,0.3-2.3,0.9c-0.6,0.6-0.9,1.5-0.9,2.5c0,1,0.3,1.9,0.9,2.5c0.6,0.6,1.4,0.9,2.3,0.9S259.2,200.4,259.7,199.7z"/>
	<path class="st1" d="M280.4,200.5v5.6h-3.3v-2.7h-8.7v2.7H265v-5.6h0.5c0.8,0,1.3-0.5,1.6-1.4c0.3-0.9,0.5-2.2,0.6-3.8l0.2-4.3
		h10.8v9.4H280.4z M270.6,198.7c-0.1,0.8-0.4,1.4-0.8,1.8h5.2V194h-4l-0.1,1.6C270.9,196.9,270.8,197.9,270.6,198.7z"/>
	<path class="st1" d="M295,191.1v12.4h-3.6V194h-5.2v9.4h-3.6v-12.4H295z"/>
	<path class="st1" d="M298.4,191.1h3.6v7.4l6-7.4h3.3v12.4h-3.6v-7.4l-6,7.4h-3.3V191.1z"/>
	<path class="st1" d="M333.6,191.1v12.4h-18.9v-12.4h3.6v9.4h4.1v-9.4h3.6v9.4h4.1v-9.4H333.6z"/>
	<path class="st1" d="M337.1,191.1h3.6v7.4l6-7.4h3.3v12.4h-3.6v-7.4l-6,7.4h-3.3V191.1z"/>
	<path class="st1" d="M363.8,194h-4.2v9.4h-3.6V194h-4.2v-2.9h11.9V194z"/>
	<path class="st1" d="M377.2,198.3h-9.4c0.2,0.8,0.6,1.4,1.2,1.8c0.6,0.4,1.4,0.7,2.3,0.7c0.6,0,1.2-0.1,1.7-0.3
		c0.5-0.2,1-0.5,1.4-0.9l1.9,2.1c-1.2,1.3-2.9,2-5.1,2c-1.4,0-2.6-0.3-3.7-0.8c-1.1-0.5-1.9-1.3-2.5-2.3c-0.6-1-0.9-2.1-0.9-3.3
		c0-1.2,0.3-2.3,0.9-3.3c0.6-1,1.4-1.7,2.4-2.3s2.1-0.8,3.4-0.8c1.2,0,2.3,0.3,3.3,0.8c1,0.5,1.8,1.3,2.3,2.2c0.6,1,0.8,2.1,0.8,3.4
		C377.2,197.3,377.2,197.7,377.2,198.3z M368.8,194.3c-0.6,0.5-0.9,1.1-1,1.9h6.1c-0.1-0.8-0.5-1.4-1-1.9c-0.6-0.5-1.2-0.7-2-0.7
		C370,193.6,369.3,193.8,368.8,194.3z"/>
	<path class="st1" d="M382.3,202.8c-1.1-0.5-1.9-1.3-2.5-2.3c-0.6-1-0.9-2.1-0.9-3.3s0.3-2.3,0.9-3.3c0.6-1,1.4-1.7,2.5-2.3
		c1-0.5,2.2-0.8,3.6-0.8c1.3,0,2.4,0.3,3.4,0.8c1,0.5,1.7,1.3,2.1,2.3l-2.8,1.5c-0.6-1.1-1.6-1.7-2.8-1.7c-0.9,0-1.7,0.3-2.3,0.9
		c-0.6,0.6-0.9,1.4-0.9,2.5c0,1.1,0.3,1.9,0.9,2.5s1.4,0.9,2.3,0.9c1.2,0,2.2-0.6,2.8-1.7l2.8,1.5c-0.4,1-1.2,1.7-2.1,2.3
		c-1,0.6-2.1,0.8-3.4,0.8C384.6,203.6,383.4,203.4,382.3,202.8z"/>
	<path class="st1" d="M404,196.1c0.9,0.7,1.3,1.7,1.3,3c0,1.4-0.5,2.4-1.4,3.2c-1,0.8-2.3,1.1-4,1.1l-6.2,0v-12.4h3.6v4h3.1
		C401.9,195,403.1,195.4,404,196.1z M401.1,200.5c0.4-0.3,0.6-0.8,0.6-1.4c0-0.6-0.2-1-0.5-1.3c-0.4-0.3-0.9-0.4-1.6-0.4l-2.3,0v3.6
		h2.3C400.2,200.9,400.7,200.8,401.1,200.5z"/>
</g>
<path class="st2" d="M211.3,230.7h217.3c6.6,0,12,5.4,12,12v28c0,6.6-5.4,12-12,12H211.3c-6.6,0-12-5.4-12-12v-28
	C199.3,236,204.7,230.7,211.3,230.7z"/>
<g class="st0">
	<path class="st1" d="M240.3,247.9V264h-3.7v-13.1h-7.3V264h-3.7v-16.1H240.3z"/>
	<path class="st1" d="M247.5,263.2c-1.3-0.7-2.4-1.7-3.2-3c-0.8-1.3-1.1-2.7-1.1-4.3s0.4-3,1.1-4.3c0.8-1.3,1.8-2.3,3.2-3
		s2.8-1.1,4.5-1.1s3.2,0.4,4.5,1.1s2.4,1.7,3.2,3s1.2,2.7,1.2,4.3s-0.4,3-1.2,4.3c-0.8,1.3-1.8,2.3-3.2,3s-2.8,1.1-4.5,1.1
		S248.8,263.9,247.5,263.2z M254.6,260.4c0.8-0.4,1.4-1,1.8-1.8c0.4-0.8,0.7-1.7,0.7-2.7s-0.2-1.9-0.7-2.7c-0.4-0.8-1-1.4-1.8-1.8
		c-0.8-0.4-1.6-0.7-2.6-0.7s-1.8,0.2-2.6,0.7c-0.8,0.4-1.4,1-1.8,1.8c-0.4,0.8-0.7,1.7-0.7,2.7s0.2,1.9,0.7,2.7
		c0.4,0.8,1,1.4,1.8,1.8c0.8,0.4,1.6,0.7,2.6,0.7S253.8,260.9,254.6,260.4z"/>
	<path class="st1" d="M279.8,261v6.4h-3.4V264H265v3.3h-3.5l0-6.4h0.6c1,0,1.6-0.7,2-2.1s0.6-3.3,0.7-5.9l0.2-5h12.4V261H279.8z
		 M267.8,258.1c-0.2,1.3-0.6,2.3-1.1,2.9h7.2v-10h-5.5l-0.1,2.3C268.2,255.2,268.1,256.8,267.8,258.1z"/>
	<path class="st1" d="M297,247.9V264h-3.7v-13.1h-7.3V264h-3.7v-16.1H297z"/>
	<path class="st1" d="M301,247.9h3.7v10.5l7.7-10.5h3.5V264h-3.7v-10.5l-7.7,10.5H301V247.9z"/>
	<path class="st1" d="M323.1,263.2c-1.3-0.7-2.4-1.7-3.1-3c-0.8-1.3-1.1-2.7-1.1-4.3s0.4-3,1.1-4.3c0.8-1.3,1.8-2.3,3.1-3
		s2.8-1.1,4.5-1.1c1.4,0,2.7,0.2,3.8,0.7c1.1,0.5,2.1,1.2,2.8,2.1l-2.4,2.2c-1.1-1.3-2.4-1.9-4-1.9c-1,0-1.9,0.2-2.7,0.7
		c-0.8,0.4-1.4,1-1.8,1.8c-0.4,0.8-0.7,1.7-0.7,2.7s0.2,1.9,0.7,2.7c0.4,0.8,1,1.4,1.8,1.8c0.8,0.4,1.7,0.7,2.7,0.7
		c1.6,0,3-0.6,4-1.9l2.4,2.2c-0.8,0.9-1.7,1.6-2.9,2.1c-1.1,0.5-2.4,0.7-3.8,0.7C325.9,264.3,324.4,263.9,323.1,263.2z"/>
	<path class="st1" d="M347.2,260.5h-7.5l-1.4,3.5h-3.8l7.2-16.1h3.7l7.2,16.1h-3.9L347.2,260.5z M346,257.7l-2.6-6.2l-2.6,6.2H346z"
		/>
	<path class="st1" d="M366.2,250.9H361V264h-3.7v-13.1h-5.1v-3h14V250.9z"/>
	<path class="st1" d="M380.8,254.5c1.1,0.9,1.6,2.2,1.6,3.9c0,1.8-0.6,3.2-1.7,4.2c-1.2,1-2.8,1.4-4.9,1.4h-7.3v-16.1h3.7v5.3h4.1
		C378.3,253.2,379.8,253.6,380.8,254.5z M377.8,260.5c0.5-0.5,0.8-1.2,0.8-2.1c0-1.7-1-2.5-3.1-2.5h-3.4v5.3h3.4
		C376.5,261.2,377.3,261,377.8,260.5z"/>
	<path class="st1" d="M388.3,263.2c-1.3-0.7-2.4-1.7-3.1-3c-0.8-1.3-1.1-2.7-1.1-4.3s0.4-3,1.1-4.3c0.8-1.3,1.8-2.3,3.1-3
		c1.3-0.7,2.8-1.1,4.5-1.1c1.4,0,2.7,0.2,3.8,0.7c1.1,0.5,2.1,1.2,2.8,2.1l-2.4,2.2c-1.1-1.3-2.4-1.9-4-1.9c-1,0-1.9,0.2-2.7,0.7
		c-0.8,0.4-1.4,1-1.8,1.8c-0.4,0.8-0.7,1.7-0.7,2.7s0.2,1.9,0.7,2.7c0.4,0.8,1,1.4,1.8,1.8c0.8,0.4,1.7,0.7,2.7,0.7
		c1.6,0,3-0.6,4-1.9l2.4,2.2c-0.8,0.9-1.7,1.6-2.9,2.1s-2.4,0.7-3.8,0.7C391.1,264.3,389.6,263.9,388.3,263.2z"/>
	<path class="st1" d="M414.3,247.9V264h-3.7v-4.3h-3.4l-2.9,4.3h-3.9l3.4-4.9c-1.1-0.4-1.9-1.1-2.5-2c-0.6-0.9-0.9-2-0.9-3.2
		c0-1.2,0.3-2.3,0.9-3.2c0.6-0.9,1.4-1.6,2.4-2.1c1-0.5,2.3-0.7,3.7-0.7H414.3z M405,251.7c-0.6,0.5-0.8,1.2-0.8,2.2
		c0,0.9,0.3,1.7,0.8,2.2c0.5,0.5,1.3,0.8,2.4,0.8h3.3v-5.8h-3.2C406.4,250.9,405.6,251.2,405,251.7z"/>
</g>
<path class="st3" d="M309.1,87.3h21.2c2.5,0,4.5,2,4.5,4.5V113c0,2.5-2,4.5-4.5,4.5h-21.2c-2.5,0-4.5-2-4.5-4.5V91.8
	C304.7,89.3,306.7,87.3,309.1,87.3z"/>
<line class="st3" x1="319.8" y1="96.3" x2="319.8" y2="106.9"/>
<path class="st3" d="M310.4,87.8v-6.6c0-5.1,4.2-9.3,9.3-9.3l0,0c5.1,0,9.3,4.2,9.3,9.3v6.6"/>
</svg>
