<svg xmlns="http://www.w3.org/2000/svg" width="40" height="26" viewBox="0 0 40 26">
    <g fill="none" fill-rule="evenodd">
        <g fill="#FFF" fill-rule="nonzero">
            <g>
                <path d="M39.312 3.097c-.421-.26-.947-.284-1.39-.063l-9.359 4.68V4.312c0-2.366-1.918-4.284-4.284-4.284H4.285C1.918.028 0 1.946 0 4.312V21.45c0 2.367 1.918 4.285 4.285 4.285h19.994c2.366 0 4.284-1.918 4.284-4.285V18.05l9.36 4.687c.705.352 1.563.066 1.915-.64.1-.2.152-.421.15-.646V4.312c.001-.495-.255-.955-.676-1.215zM25.707 21.45c0 .79-.64 1.429-1.428 1.429H4.285c-.79 0-1.429-.64-1.429-1.429V4.312c0-.788.64-1.428 1.429-1.428h19.994c.789 0 1.428.64 1.428 1.428V21.45zm11.425-2.31l-8.569-4.285v-3.947l8.57-4.285V19.14z" transform="translate(-535 -1129) translate(535 1129)"/>
                <path d="M14.282 7.169c-3.155 0-5.713 2.557-5.713 5.713 0 3.155 2.558 5.712 5.713 5.712 3.155 0 5.712-2.557 5.712-5.712 0-3.156-2.557-5.713-5.712-5.713zm0 8.569c-1.578 0-2.857-1.279-2.857-2.856 0-1.578 1.28-2.857 2.857-2.857 1.577 0 2.856 1.279 2.856 2.857 0 1.577-1.279 2.856-2.856 2.856z" transform="translate(-535 -1129) translate(535 1129)"/>
            </g>
        </g>
    </g>
</svg>
