<svg xmlns="http://www.w3.org/2000/svg" width="20" height="20" viewBox="0 0 20 20">
    <g fill="none" fill-rule="evenodd">
        <g fill="#F5F6F6">
            <g>
                <path d="M8.754 11.873L12.007 10 8.754 8.127z" transform="translate(-1020 -3552) translate(1020 3552)"/>
                <path fill-rule="nonzero" d="M10 0C4.478 0 0 4.478 0 10s4.478 10 10 10 10-4.478 10-10S15.522 0 10 0zm6.248 10.01s0 2.028-.257 3.006c-.144.535-.566.958-1.101 1.102-.978.257-4.89.257-4.89.257s-3.902 0-4.89-.268c-.535-.144-.957-.566-1.101-1.101C3.75 12.038 3.75 10 3.75 10s0-2.028.258-3.006c.144-.535.576-.968 1.101-1.112.978-.257 4.89-.257 4.89-.257s3.912 0 4.89.268c.535.144.957.566 1.101 1.101.268.978.257 3.016.257 3.016z" transform="translate(-1020 -3552) translate(1020 3552)"/>
            </g>
        </g>
    </g>
</svg>
